<svg data-name="Layer 1" xmlns="http://www.w3.org/2000/svg" viewBox="0 0 762 689.78723">
  <path d="M508.535 242.54785H253.69653a16.51867 16.51867 0 01-16.5-16.5V25.89405a12.10185 12.10185 0 0112.08789-12.08838h263.4535A12.31111 12.31111 0 01525.035 26.10303v199.94482a16.51866 16.51866 0 01-16.5 16.5z" fill="#f2f2f2"/>
  <path d="M269.69653 226.04785H492.535a16 16 0 0016-16V56.5a16 16 0 00-16-16H269.69653a16 16 0 00-16 16v153.54785a16 16 0 0016 16z" fill="#fff"/>
  <path d="M524.8053 24.9502H236.965v-8.40039A16.57376 16.57376 0 01253.525 0h254.72024a16.57369 16.57369 0 0116.56006 16.54981z" fill="#ccc"/>
  <circle cx="267.06033" cy="12.5" r="4.28342" fill="#fff"/>
  <circle cx="283.31913" cy="12.5" r="4.28342" fill="#fff"/>
  <circle cx="299.57794" cy="12.5" r="4.28342" fill="#fff"/>
  <path d="M286.09487 112.456h-11.036a2.25988 2.25988 0 01-2.25737-2.25737V99.16262a2.25987 2.25987 0 012.25737-2.25737h11.036a2.25988 2.25988 0 012.25737 2.25737v11.036a2.25989 2.25989 0 01-2.25737 2.25738z" fill="#504de2"/>
  <path d="M286.09487 141.0493h-11.036a2.25987 2.25987 0 01-2.25737-2.25737v-11.036a2.25987 2.25987 0 012.25737-2.25736h11.036a2.25988 2.25988 0 012.25737 2.25736v11.036a2.25988 2.25988 0 01-2.25737 2.25737z" fill="#3f3d56"/>
  <path d="M286.09487 169.64262h-11.036a2.25987 2.25987 0 01-2.25737-2.25737v-11.036a2.25987 2.25987 0 012.25737-2.25737h11.036a2.25988 2.25988 0 012.25737 2.25737v11.036a2.25988 2.25988 0 01-2.25737 2.25737zM358.33059 106.93799h-53.17352a2.25737 2.25737 0 010-4.51473h53.17352a2.25737 2.25737 0 110 4.51473zM358.33059 135.53129h-53.17352a2.25737 2.25737 0 010-4.51473h53.17352a2.257365 2.257365 0 110 4.51473zM358.33059 164.12462h-53.17352a2.25737 2.25737 0 010-4.51473h53.17352a2.25737 2.25737 0 110 4.51473z" fill="#ccc"/>
  <path d="M489.34116 133.99086c.05671-.949.08892-1.90451.08892-2.86774a47.31775 47.31775 0 00-47.3177-47.3177v50.18544z" fill="#504de2"/>
  <path d="M438.5277 138.29247V88.10703a47.3177 47.3177 0 1047.22879 50.18544z" fill="#3f3d56"/>
  <path d="M761 689.78724H1a1 1 0 010-2h760a1 1 0 010 2z" fill="#ccc"/>
  <path d="M504.69 412.92562a10.70347 10.70347 0 01.8898 1.43141l50.11327 5.63486 7.28838-9.84724 16.29888 9.05707-14.34733 23.91944-61.39551-16.11278a10.67269 10.67269 0 111.15251-14.08276zM248.98716 399.9878a10.05572 10.05572 0 01-14.52487-5.17531l-35.72708.745 9.8976-15.71214 32.40963 1.70135a10.11027 10.11027 0 017.94472 18.44106z" fill="#ffb8b8"/>
  <path d="M233.285 395.49006a4.509 4.509 0 01-4.42846 3.21337l-65.38677-1.66091-59.2065-17.52973a12.81886 12.81886 0 117.63274-24.47233l53.4904 17.53816 64.201 6.19566a4.52376 4.52376 0 014.06742 4.55554l-.18586 10.95078a4.52253 4.52253 0 01-.18397 1.20946z" fill="#3f3d56"/>
  <path fill="#ffb8b8" d="M138.461 676.601l12.259-.001 5.833-47.288-18.094.001.002 47.288z"/>
  <path d="M135.33347 672.59794l24.1438-.001h.001a15.38605 15.38605 0 0115.38647 15.38623v.5l-39.53051.00146z" fill="#2f2e41"/>
  <path fill="#ffb8b8" d="M102.461 676.601l12.259-.001 5.833-47.288-18.094.001.002 47.288z"/>
  <path d="M99.33347 672.59794l24.1438-.001h.001a15.38605 15.38605 0 0115.38647 15.38623v.5l-39.53051.00146zM94.233 485.49282l2.92742 173.69393a4 4 0 004.36158 3.91617l14.34623-1.30421a4 4 0 003.62589-3.67442l8.39886-108.34524a1 1 0 011.99629.03943l4.19795 110.82575a4 4 0 003.99713 3.84859h15.38563a4 4 0 003.99255-3.756l10.77047-176.244-64-16z" fill="#2f2e41"/>
  <circle cx="140.65422" cy="297.83534" r="24.56103" fill="#ffb8b8"/>
  <path d="M167.29155 491.93228c-.02392 0-.04761-.001-.07153-.001l-57.43091-.88379a4.49951 4.49951 0 01-4.40845-4.05176l-.65014-6.50293a.50005.50005 0 00-.99512 0l-.67163 6.7168a4.49386 4.49386 0 01-4.13257 4.03809l-4.05859.3125a4.49944 4.49944 0 01-4.698-5.62793l3.49463-13.32422a181.54022 181.54022 0 001.69775-84.66016l-1.73657-7.89941a28.528 28.528 0 0113.47021-30.81641l11.28028-6.6123 5.11792-7.67676a11.08482 11.08482 0 018.97754-4.92285c7.1394-.15625 19.38623 1.15137 21.68725 11.59082a28.50083 28.50083 0 0119.282 27.44141l-1.65673 118.44238a4.50121 4.50121 0 01-4.49732 4.4375z" fill="#3f3d56"/>
  <path d="M138.733 311.99282c-.10071 3.472-2.51116 5.48066-5.47053 7.29925s-6.41876 2.60712-9.80794 3.36775a2.99863 2.99863 0 01-4.40516-2.62457l-3.1084-11.82324a74.84075 74.84075 0 01-2.39306-11.537c-.74861-7.50914 1.031-15.58706 6.27222-21.01633s14.33084-7.358 20.6116-3.17479c7.45361-9.51977 41.52344 11.513 33.11914 18.13282-1.49512 1.17767-3.78063-.31249-5.67841-.45693s-4.02454.18936-5.23 1.66218c-1.575 1.92421-.889 4.79052-1.538 7.1909a6.71433 6.71433 0 01-8.48369 4.34834 23.08891 23.08891 0 01-4.39987-2.82861c-1.45566-.96957-3.29506-1.686-4.93368-1.0745-2.15991.80607-2.92722 3.45041-3.12242 5.74756a53.23525 53.23525 0 01-1.4318 6.78717z" fill="#2f2e41"/>
  <path opacity=".2" d="M144.469 377.819l4 49 21 51-31-50 6-50z"/>
  <path d="M402.8191 646.14642L183.64859 516.11969a16.51868 16.51868 0 01-5.77178-22.60944l102.12486-172.13963a12.10185 12.10185 0 0116.56391-4.22883l226.57971 134.42236a12.31111 12.31111 0 014.30147 16.85056L425.42854 640.37462a16.51868 16.51868 0 01-22.60944 5.7718z" fill="#f2f2f2"/>
  <path d="M205.828 510.09279L397.47734 623.7921a16 16 0 0021.9243-5.59688l78.345-132.05681a16 16 0 00-5.59688-21.9243L300.50044 350.5148a16 16 0 00-21.9243 5.59688l-78.345 132.05681a16 16 0 005.59686 21.9243z" fill="#fff"/>
  <path d="M527.83739 467.30602L280.28409 320.4407l4.28615-7.22464a16.57377 16.57377 0 0122.6865-5.784l219.06878 129.9664a16.57369 16.57369 0 015.798 22.68291z" fill="#ccc"/>
  <circle cx="312.5197" cy="325.08868" r="4.28342" fill="#fff"/>
  <circle cx="326.50287" cy="333.38445" r="4.28342" fill="#fff"/>
  <circle cx="340.48604" cy="341.68021" r="4.28342" fill="#fff"/>
  <path fill="#e6e6e6" d="M472.47817223 492.8460102l.27860195-.46960592 2.8176441 1.67161676-.27860194.46960592zM466.786 489.469l-5.69215-3.377.2786-.46961 5.69215 3.377zm-11.38442-6.754l-5.69216-3.377.2786-.46961 5.69216 3.377zm-11.38443-6.754l-5.69216-3.377.27861-.46961 5.69215 3.377zm-11.38443-6.754l-5.69215-3.377.2786-.46961 5.69216 3.377zm-11.38442-6.754l-5.69216-3.377.27861-.46961 5.69215 3.377zm-11.38443-6.754l-5.69215-3.377.2786-.46961 5.69216 3.377zm-11.38442-6.754l-5.69216-3.377.27861-.46961 5.69215 3.377zm-11.38443-6.754l-5.69215-3.377.2786-.46961 5.69216 3.377zm-11.38442-6.754l-5.69216-3.377.2786-.46961 5.69216 3.377zm-11.38443-6.754l-5.69215-3.377.2786-.4696 5.69215 3.377zm-11.38442-6.754l-5.69216-3.377.2786-.4696 5.69216 3.377zm-11.38443-6.754l-5.69215-3.377.2786-.4696 5.69215 3.377zm-11.38442-6.754l-5.69216-3.377.2786-.46961 5.69216 3.377zm-11.38443-6.754l-5.69227-3.377.2786-.46961 5.69227 3.377zm-11.38443-6.754l-5.69215-3.377.2786-.46961 5.69216 3.377zm-11.38442-6.754l-5.69227-3.377.2786-.46961 5.69227 3.377zM281.81756157 379.7332588l.27860194-.46960592 2.81764411 1.67161677-.27860194.46960591zM354.05545208 481.6347497l.27860194-.46960591 2.81764411 1.67161676-.27860194.46960591zM348.44766 478.3078l-5.60766-3.32684.2786-.46961 5.60766 3.32684zm-11.21531-6.65369l-5.60766-3.32684.2786-.4696 5.60766 3.32684zm-11.21535-6.65368l-5.60763-3.32681.27861-.46961 5.60765 3.32684zm-11.21531-6.65368l-5.60766-3.32684.2786-.46961 5.60766 3.32684zm-11.21532-6.65368l-5.60777-3.32691.2786-.46961 5.60777 3.32691zm-11.21537-6.65375l-5.60766-3.32684.2786-.46961 5.60766 3.32684zm-11.21535-6.6537l-5.60766-3.32684.27861-.4696 5.60765 3.32684zm-11.21532-6.65368l-5.60765-3.32684.2786-.46961 5.60766 3.32684zM255.90749205 423.40675431l.27860194-.46960591 2.81764411 1.67161676-.27860194.46960592zM286.85285341 469.70093357l.27860194-.46960592 2.81764411 1.67161676-.27860194.46960592zM281.08342 466.27809l-5.76943-3.42282.2786-.4696 5.76943 3.42281zm-11.539-6.8457l-5.76942-3.42277.27861-.46961 5.76943 3.42281zm-11.53886-6.84563l-5.76943-3.42281.27861-.46961 5.76943 3.42281zM243.64896768 444.06948646l.27860194-.46960591 2.81764411 1.67161676-.27860194.46960591zM265.93334774 504.96245648l.27860194-.46960592 2.81764411 1.67161676-.27860194.46960592zM260.16391 501.53962l-5.76943-3.42281.2786-.46961 5.76943 3.42281zm-11.539-6.8457l-5.76943-3.42281.2786-.46961 5.76943 3.42282zm-11.53886-6.84563l-5.76943-3.42281.2786-.46961 5.76943 3.42282zM222.72946851 479.33098568l.27860194-.46960592 2.81764411 1.67161676-.27860194.46960592z"/>
  <path d="M238.40154 489.11585l162.40985 96.35248a17.26548 17.26548 0 0023.63179-6.03277l47.45331-79.98636-.32653-.18123-107.6653 27.48145-8.52852-33.39355a4.1237 4.1237 0 00-2.3875-2.787 4.39388 4.39388 0 00-2.81786-.15814l-56.42137 14.39926-6.23665-24.41473a4.13956 4.13956 0 00-5.03644-2.988c-.38109.10102-37.09532 9.82894-44.07478 11.70859z" fill="#504de2"/>
  <path d="M237.43081 489.17421l-.135-.529 45.14944-11.52584a4.646 4.646 0 015.64492 3.349l6.11019 23.935 56.10809-14.32339a4.646 4.646 0 015.64492 3.349l8.40225 32.91358 108.226-27.62815.135.529-108.755 27.76319-8.53729-33.44258a4.095 4.095 0 00-4.98086-2.955l-56.6371 14.45843-6.24524-24.46406a4.10019 4.10019 0 00-4.98086-2.955z" fill="#3f3d56"/>
  <circle cx="289.80979" cy="471.13771" r="3.82222" fill="#3f3d56"/>
  <circle cx="357.01238" cy="483.07152" r="3.82222" fill="#3f3d56"/>
  <circle cx="474.09156" cy="492.27639" r="3.82222" fill="#3f3d56"/>
  <path d="M174.37946 496.81102a10.05579 10.05579 0 01-.31761-15.41606l-13.37856-33.136 18.20228 3.67571 9.9139 30.903a10.11027 10.11027 0 01-14.42 13.97336z" fill="#ffb8b8"/>
  <path d="M174.1576 482.45425a4.50906 4.50906 0 01-4.57608-2.99942l-21.65761-61.71821-4.62838-61.57336a12.81886 12.81886 0 1125.588-1.55128l2.59146 56.23251 16.99724 62.21933a4.52375 4.52375 0 01-2.81506 5.41961l-10.30361 3.71344a4.52237 4.52237 0 01-1.19596.25738z" fill="#3f3d56"/>
  <path d="M575.719 427.76813a4.58959 4.58959 0 01-1.11619-.69655l-20.14091-16.9666a4.57512 4.57512 0 01-.29423-6.72835l18.27677-18.35229a4.5519 4.5519 0 015.93049-.47235l13.82153 10.03663a4.57786 4.57786 0 011.448 5.65826l-11.957 25.28131a4.57994 4.57994 0 01-5.96851 2.23991z" fill="#504de2"/>
  <path fill="#ffb8b8" d="M654.276 667.73l-12.029 3.273-18.349-44.841 17.754-4.83 12.624 46.398z"/>
  <path d="M632.47758992 669.96951835l23.44111655-6.37789215 3.97422927 14.60676495-37.8057633 10.28624556-.06587586-.24211819a14.88686 14.88686 0 0110.45629334-18.27300017z" fill="#2f2e41"/>
  <path fill="#ffb8b8" d="M551.441 676.909l-12.466-.001-5.931-48.085 18.4.001-.003 48.085z"/>
  <path d="M529.81942 673.346h24.29327v15.13777h-39.18013v-.25092a14.88686 14.88686 0 0114.88686-14.88685z" fill="#2f2e41"/>
  <circle cx="570.22114" cy="334.4528" r="24.97498" fill="#ffb8b8"/>
  <path d="M550.67811 642.62439h-17.036a4.58914 4.58914 0 01-4.57138-4.29382c-5.07632-80.69888-2.10694-138.58608 9.34458-182.17277a4.75677 4.75677 0 01.18545-.56105l.91234-2.281a4.55426 4.55426 0 014.24889-2.87679h35.03255a4.56841 4.56841 0 013.47434 1.59778l4.75831 5.552c.09284.10824.17973.21846.2634.33465 21.45671 29.92172 40.68557 88.41962 62.95582 167.04706a4.5605 4.5605 0 01-3.00836 5.60957l-18.30834 5.85883a4.60045 4.60045 0 01-5.51648-2.37133l-47.51012-98.5405a3.55918 3.55918 0 00-6.73194 1.06353l-13.9594 102.07763a4.59333 4.59333 0 01-4.53366 3.95621z" fill="#2f2e41"/>
  <path d="M585.10666 457.99489c-.04791 0-.09558-.001-.14374-.002l-42.5537-1.34356a4.561 4.561 0 01-4.40156-4.02074c-5.39434-43.66514 9.39994-55.36293 16.011-58.36484a3.51794 3.51794 0 002.04612-2.7894l.572-4.57683a4.55913 4.55913 0 01.90414-2.22238c10.36541-13.42764 24.51919-17.72742 32.03363-19.09481a4.56882 4.56882 0 015.33973 3.91449l.857 6.57181a3.62041 3.62041 0 00.7254 1.71992c21.61733 28.26039-2.46543 69.98715-7.51271 78.06439a4.58439 4.58439 0 01-3.87731 2.14395z" fill="#504de2"/>
  <path d="M597.7 318.92028a103.57206 103.57206 0 01-4.09287-17.25254c-.273-3.41006.60057-7.07923 3.08395-9.43206 4.64755-4.40323 12.54378-2.306 17.40406 1.86121 7.02423 6.02258 10.52747 15.27806 11.85143 24.43548s.74144 18.46957 1.06013 27.71671 1.64124 18.75534 6.35559 26.71687 13.46275 14.07278 22.69054 13.39517a15.969 15.969 0 009.9964-4.23637 11.591 11.591 0 003.48119-10.06508c4.71642 8.44535 2.32556 19.89152-4.70938 26.53065s-17.856 8.51593-27.10448 5.68134-16.86021-9.94222-21.4068-18.4802-6.2127-18.40091-5.97125-28.071c.18542-7.42586 1.4477-14.91251.19284-22.23392s-5.837-14.75531-13.0623-16.4794z" fill="#2f2e41"/>
  <path d="M565.25282 328.54597c-1.23189 4.11515-5.94388 6.65267-10.18271 5.95671a11.94052 11.94052 0 01-9.01247-8.28474 17.05556 17.05556 0 011.3329-12.50345 19.47082 19.47082 0 0111.14084-9.92334 15.98674 15.98674 0 0114.53656 2.32276 5.3461 5.3461 0 013.736-3.907 10.21608 10.21608 0 015.60645.08275 23.10023 23.10023 0 0112.857 9.35333 37.59027 37.59027 0 015.82701 15.02063c1.43448 8.05189.90537 16.85038-3.61682 23.6651s-13.774 10.83861-21.27971 7.58968c-.468-2.39261.6407-4.80178 1.92341-6.875s2.80291-4.09289 3.29567-6.48052-.45191-5.30818-2.76144-6.089c-1.9703-.66614-4.071.4131-6.14677.54342a6.73548 6.73548 0 01-6.461-9.70517z" fill="#2f2e41"/>
  <path d="M501.95558 431.43339a10.7034 10.7034 0 011.14367 1.238l50.27705-3.9129 5.30143-11.04461 17.714 5.82223-9.58111 26.19523-63.33219-4.25038a10.67269 10.67269 0 11-1.52285-14.04759z" fill="#ffb8b8"/>
  <path d="M576.11921 440.98408a4.58982 4.58982 0 01-1.2007-.53793l-22.26519-14.06353a4.57513 4.57513 0 01-1.20841-6.62549l15.60522-20.6718a4.5519 4.5519 0 015.81079-1.27615l15.06041 8.05944a4.57784 4.57784 0 012.20564 5.40813l-8.40018 26.67494a4.57994 4.57994 0 01-5.60758 3.03239z" fill="#504de2"/>
</svg>
