<svg xmlns="http://www.w3.org/2000/svg" viewBox="0 0 866.33071 605.73993">
  <path d="M731.4685 420.65866a9.14581 9.14581 0 011.93088-13.89051l-7.25159-31.682 15.8187 5.91773 4.46105 29.1785a9.19542 9.19542 0 01-14.959 10.47626z" fill="#ffb8b8"/>
  <path d="M730.37402 395.51385l-13.906-26.88477 1.88062-67.69726.89355 1.88281c1.041 2.19336 25.44019 53.84619 23.7 71.13819l2.78882 15.80224z" fill="#3f3d56"/>
  <path fill="#ffb8b8" d="M721.307 594.201h11.151l5.304-43.009-16.457.001.002 43.008z"/>
  <path d="M718.46296 590.56096l21.95908-.00089h.00155a13.99379 13.99379 0 0113.99352 13.99352v.45476l-35.95371.00177z" fill="#2f2e41"/>
  <path fill="#ffb8b8" d="M611.134 585.727l10.743 2.987 16.634-40.015-15.856-4.409-11.521 41.437z"/>
  <path d="M609.36887 581.45774l21.15648 5.88266.00149.00042a13.99378 13.99378 0 019.7326 17.23118l-.12184.43813-34.63966-9.63139zM710.18969 577.43426l-22.50366-161.126-48.60449 160.21487-38.21692-13.04981 54.77454-214.53271.36035-.02539 57.38061-3.99121 41.45679 219.48779z" fill="#2f2e41"/>
  <path d="M704.23828 273.01505s-20.91878-10.91415-49.11366-6.36659c0 0-15.007 36.205 0 50.61758l4.0928 36.24085s38.19952 22.7378 50.93269-3.63805l-1.819-30.01391s9.09512-14.39464 1.819-24.93281a34.82081 34.82081 0 01-5.91183-21.90707z" fill="#504de2"/>
  <path d="M706.88842 437.85662l3.67163-76.188-10.39135-90.63379.47705-.07227c13.63086-2.05517 18.00268 21.42774 18.18213 22.42822l23.72583 134.14209zM660.63159 438.65057l-41.94336-4.66016.011-.45849c.14869-6.20948 3.75879-152.2041 13.87452-162.54395 10.17553-10.40137 29.37719-5.90088 30.18969-5.70312l.40479.09765-3.45142 61.77637z" fill="#3f3d56"/>
  <path d="M668.35679 351.39317a9.14584 9.14584 0 01-11.90719-7.409l-31.89489-6.24893 11.83539-12.04883 28.47343 7.7813a9.19542 9.19542 0 013.49326 17.92547z" fill="#ffb8b8"/>
  <path d="M651.33667 344.07928l-10.39258-2.23432c-15.34229 4.61425-42.12219-11.62989-52.94593-18.84522-2.03662-1.35742-2.69726-4.04736-1.9635-7.99365a23.30978 23.30978 0 018.567-13.915l38.11975-30.2251 9.62158-1.60889 2.85791 16.19483-24.28733 26.08633 35.75244 19.46z" fill="#3f3d56"/>
  <path d="M647.22629 252.93822v-21a33.5 33.5 0 1167 0v21a4.50508 4.50508 0 01-4.5 4.5h-58a4.50507 4.50507 0 01-4.5-4.5z" fill="#2f2e41"/>
  <circle cx="679.37983" cy="232.67051" r="24.56103" fill="#ffb8b8"/>
  <path d="M654.14474 232.57596a2.50023 2.50023 0 01-.5852-1.99317l2.90942-20.25976a2.50362 2.50362 0 011.41455-1.91895c14.85034-6.95019 29.90967-6.959 44.76-.02637a2.51921 2.51921 0 011.42871 2.03614l1.94213 20.28611a2.49954 2.49954 0 01-2.48877 2.73828h-4.92553a2.50966 2.50966 0 01-2.26539-1.44238l-2.12573-4.55469a1.49989 1.49989 0 00-2.84765.44824l-.41993 3.3584a2.50359 2.50359 0 01-2.48071 2.19043h-32.42649a2.50013 2.50013 0 01-1.88941-.86228z" fill="#2f2e41"/>
  <path fill="#e6e6e6" d="M0 40.3663h551v343.11356H0z"/>
  <path fill="#fff" d="M36.94894 106.46612h100.91574v65.59524H36.94894zM162.34439 106.46612h100.91574v65.59524H162.34439zM287.73987 106.46612h100.91577v65.59524H287.73987zM413.13531 106.46612h100.91577v65.59524H413.13531zM36.94894 199.30861h100.91574v65.59523H36.94894zM162.34439 199.30861h100.91574v65.59523H162.34439zM287.73987 199.30861h100.91577v65.59523H287.73987zM413.13531 199.30861h100.91577v65.59523H413.13531zM36.94894 292.15109h100.91574v65.59525H36.94894zM162.34439 292.15109h100.91574v65.59525H162.34439zM287.73987 292.15109h100.91577v65.59525H287.73987zM413.13531 292.15109h100.91577v65.59525H413.13531z"/>
  <circle cx="144.30951" cy="65.59524" r="15.13736" fill="#fff"/>
  <circle cx="394.58057" cy="65.59524" r="15.13734" fill="#fff"/>
  <path fill="#e6e6e6" d="M138.25458 0h12.10989v69.63187h-12.10989zM388.52563 0h12.10986v69.63187h-12.10986z"/>
  <path d="M486.41394 139.26373a22.75657 22.75657 0 11-3.52686-12.19043 22.7566 22.7566 0 013.52686 12.19043z" fill="#504de2"/>
  <path d="M482.88708 127.07333l-22.46387 22.45975c-1.41186-2.18579-9.27765-12.34394-9.27765-12.34394a31.82748 31.82748 0 013.21979-2.84218l6.52259 8.69678 19.36853-19.36856a22.72652 22.72652 0 012.63061 3.39815z" fill="#fff"/>
  <path d="M235.62298 232.10623a22.75655 22.75655 0 11-3.52685-12.19043 22.7566 22.7566 0 013.52685 12.19043z" fill="#504de2"/>
  <path d="M232.09613 219.9158l-22.46387 22.45974c-1.41187-2.18579-9.27765-12.34393-9.27765-12.34393a31.82748 31.82748 0 013.21979-2.84222l6.52258 8.69677 19.36859-19.36856a22.72613 22.72613 0 012.63056 3.3982z" fill="#fff"/>
  <path d="M110.22753 232.10623a22.75667 22.75667 0 11-3.52685-12.19043 22.75667 22.75667 0 013.52685 12.19043z" fill="#504de2"/>
  <path d="M106.70068 219.9158l-22.46387 22.45974c-1.41186-2.18579-9.27765-12.34393-9.27765-12.34393a31.82748 31.82748 0 013.21979-2.84222l6.52258 8.69677 19.3686-19.36856a22.72673 22.72673 0 012.63055 3.3982z" fill="#fff"/>
  <path d="M865.3307 605.73996h-381a1 1 0 010-2h381a1 1 0 010 2z" fill="#F3F4F6"/>
</svg>
