<svg data-name="Layer 1" xmlns="http://www.w3.org/2000/svg" viewBox="0 0 858.75602 581.93444">
  <path d="M811.98138 579.64216a198.58515 198.58515 0 0116.43551-62.6751q3.70938-8.28648 8.16548-16.20812a1.21031 1.21031 0 00-2.08857-1.22081 201.33032 201.33032 0 00-22.40292 61.8047q-1.682 9.08553-2.52831 18.29933c-.14337 1.54932 2.27633 1.53955 2.41881 0z" fill="#f2f2f2"/>
  <circle cx="842.44078" cy="489.31908" r="15.31908" fill="#f2f2f2"/>
  <path d="M813.54841 580.04903a128.83181 128.83181 0 0110.66249-40.66026q2.40643-5.37582 5.29732-10.515a.78518.78518 0 00-1.355-.792 130.61268 130.61268 0 00-14.53382 40.09559q-1.09118 5.8942-1.64023 11.87163c-.093 1.00512 1.47676.99878 1.56919 0z" fill="#f2f2f2"/>
  <circle cx="833.30885" cy="521.45224" r="9.9382" fill="#f2f2f2"/>
  <path d="M811.56786 579.11088a128.83151 128.83151 0 01-16.60132-38.61789q-1.409-5.71884-2.29049-11.549a.78518.78518 0 00-1.55548.2089 130.61245 130.61245 0 0013.20154 40.55376q2.76492 5.31861 6.00847 10.36939c.54487.84972 1.77871-.12078 1.23728-.96515z" fill="#f2f2f2"/>
  <circle cx="791.10806" cy="520.7546" r="9.9382" fill="#f2f2f2"/>
  <path d="M170.42718 579.64216a198.58543 198.58543 0 00-16.43552-62.6751q-3.70938-8.28648-8.16547-16.20812a1.2103 1.2103 0 012.08856-1.22081 201.33032 201.33032 0 0122.40292 61.8047q1.682 9.08553 2.52831 18.29933c.14338 1.54932-2.27633 1.53955-2.4188 0z" fill="#f2f2f2"/>
  <circle cx="139.96777" cy="489.31908" r="15.31908" fill="#f2f2f2"/>
  <path d="M168.86014 580.04903a128.83154 128.83154 0 00-10.66249-40.66026q-2.40643-5.37582-5.29732-10.515a.78518.78518 0 011.355-.792 130.61243 130.61243 0 0114.53382 40.09559q1.09117 5.8942 1.64023 11.87163c.093 1.00512-1.47676.99878-1.56919 0z" fill="#f2f2f2"/>
  <circle cx="149.0997" cy="521.45224" r="9.9382" fill="#f2f2f2"/>
  <path d="M170.84069 579.11088a128.83126 128.83126 0 0016.60132-38.61789q1.409-5.71884 2.2905-11.549a.78518.78518 0 011.55548.2089 130.61247 130.61247 0 01-13.20155 40.55376q-2.76492 5.31857-6.00843 10.36938c-.54487.84972-1.77871-.12078-1.23728-.96515z" fill="#f2f2f2"/>
  <circle cx="191.3005" cy="520.7546" r="9.9382" fill="#f2f2f2"/>
  <path d="M754.40301 379.37882l.2391 180.1142a12.62623 12.62623 0 01-12.59331 12.63042l-74.81731.10967c21.0619-39.39981 32.98714-101.4149 32.91706-149.21752a281.27111 281.27111 0 00-5.721-56.16081l47.34517-.0694a12.62623 12.62623 0 0112.63029 12.59344z" fill="#504de2"/>
  <path d="M857.56534 581.93444h-738.294a1.19069 1.19069 0 010-2.38137h738.294a1.190685 1.190685 0 010 2.38137zM644.76556 354.76122l-133.33838-.52295 12.96582-43.1372a16.59941 16.59941 0 0115.80371-11.75049h.06274l76.10571.29883a16.59722 16.59722 0 0115.77369 11.875z" fill="#3f3d56"/>
  <path d="M719.20428 340a14 14 0 00-14 14h28a14 14 0 00-14-14z" fill="#504de2"/>
  <path d="M762.20428 581h-368a17.01916 17.01916 0 01-17-17V370a17.01917 17.01917 0 0117-17h368a17.01917 17.01917 0 0117 17v194a17.01916 17.01916 0 01-17 17zm-368-226a15.017 15.017 0 00-15 15v194a15.017 15.017 0 0015 15h368a15.017 15.017 0 0015-15V370a15.017 15.017 0 00-15-15z" fill="#3f3d56"/>
  <path d="M594.20428 338.5h-32a8.5 8.5 0 010-17h32a8.5 8.5 0 010 17z" fill="#fff"/>
  <path d="M578.20428 543a76 76 0 1176-76 76.086 76.086 0 01-76 76zm0-150a74 74 0 1074 74 74.08385 74.08385 0 00-74-74z" fill="#3f3d56"/>
  <path d="M578.20428 517a50 50 0 1150-50 50.0565 50.0565 0 01-50 50zm0-98a48 48 0 1048 48 48.05437 48.05437 0 00-48-48z" fill="#3f3d56"/>
  <circle cx="578.20428" cy="467" r="38" fill="#ccc"/>
  <path d="M555.20428 467a25.001 25.001 0 0121.5-24.751 25 25 0 100 49.502 25.001 25.001 0 01-21.5-24.751z" fill="#fff"/>
  <path d="M744.20428 355h-50v-1a25 25 0 0150 0zm-47.97852-2h45.957a23.00028 23.00028 0 00-45.957 0zM402.20428 383a10 10 0 1110-10 10.0113 10.0113 0 01-10 10zm0-18a8 8 0 108 8 8.00916 8.00916 0 00-8-8z" fill="#3f3d56"/>
  <circle cx="402.20428" cy="373" r="5" fill="#504de2"/>
  <circle cx="428.20428" cy="373" r="5" fill="#ccc"/>
  <circle cx="454.20428" cy="373" r="5" fill="#ccc"/>
  <path d="M428.20428 383a10 10 0 1110-10 10.0113 10.0113 0 01-10 10zm0-18a8 8 0 108 8 8.00916 8.00916 0 00-8-8zM454.20428 383a10 10 0 1110-10 10.0113 10.0113 0 01-10 10zm0-18a8 8 0 108 8 8.00916 8.00916 0 00-8-8zM378.20428 439.87402h130v2h-130zM378.20428 480.12598h126.77148v2H378.20428zM648.20428 439.87402h130v2h-130zM651.20428 480.12598h126.77148v2H651.20428z" fill="#3f3d56"/>
  <path d="M272.82616 242.47649c-8.10948-3.7255-13.44022-14.37685-13.13661-24.88137s5.83147-20.32877 13.4557-25.33817a26.6494 26.6494 0 0125.21942-1.90564c8.18253 3.483 19.16872 4.43181 24.08706 13.089 3.77959 6.6528 2.41807 21.49465-.25792 28.89228-2.31293 6.394-7.96837 9.99663-13.48333 12.0127a45.34013 45.34013 0 01-37.51095-3.0216" fill="#2f2e41"/>
  <path fill="#ffb8b8" d="M223.381 568.707l-11.659-3.793 9.081-46.773 17.207 5.598-14.629 44.968z"/>
  <path d="M204.47864446 558.87380467l22.4839772 7.31459894-4.60548479 14.15656767-36.64052585-11.92007754a14.88686 14.88686 0 0118.76203344-9.55108907z" fill="#2f2e41"/>
  <path fill="#ffb8b8" d="M327.75 568.961l-12.26-.001-5.832-47.288 18.094.001-.002 47.288z"/>
  <path d="M306.73286 565.45722h23.64387v14.88687H291.846a14.88686 14.88686 0 0114.88686-14.88687zM327.13294 549.61922c-.07373 0-.14746-.002-.22168-.00585l-13.5857-.64747a4.50609 4.50609 0 01-4.2854-4.43261l-1.84106-134.39067a1.5 1.5 0 00-2.82666-.67871l-71.9585 136.44043a4.47624 4.47624 0 01-4.822 2.32129l-13.521-2.5752a4.49925 4.49925 0 01-3.40136-5.918l52.42993-148.55176 4.03442-43.94336a4.46976 4.46976 0 013.936-4.04981c15.2771-1.877 36.62378-14.39453 45.09228-19.68945a4.446 4.446 0 013.53052-.53125 4.55584 4.55584 0 012.83081 2.24512 202.74824 202.74824 0 0122.27688 123.9766l-13.2168 96.54a4.47517 4.47517 0 01-4.45068 3.8907z" fill="#2f2e41"/>
  <circle cx="290.56412" cy="228.23695" r="24.56103" fill="#ffb8b8"/>
  <path d="M266.09168 357.78813l-7.39551-52.84473a31.04467 31.04467 0 0160.57373-13.63476c2.106 9.76855 6.385 21.66015 4.82178 34.47949-10.95267 30.39935-30.83545 39.77185-58 32z" fill="#b3b3b3"/>
  <path d="M298.59168 275.78813h-18a4.50508 4.50508 0 01-4.5-4.5v-6a4.50508 4.50508 0 014.5-4.5h18a4.50508 4.50508 0 014.5 4.5v6a4.50508 4.50508 0 01-4.5 4.5z" fill="#b3b3b3"/>
  <path d="M389.81515 375.67027a10.74269 10.74269 0 00-8.71486-13.97851l-56.02916-80.21427-16.6137 16.42473 60.29893 73.68333a10.80091 10.80091 0 0021.05879 4.08469z" fill="#ffb8b8"/>
  <path d="M342.59801 306.01655l-20.23358 13.50719a4.81689 4.81689 0 01-7.0291-1.94753l-10.36471-21.92794a13.37737 13.37737 0 0122.29539-14.78934l16.22876 17.91906a4.81686 4.81686 0 01-.8968 7.23856z" fill="#b3b3b3"/>
  <path d="M191.88013 267.89048a10.526 10.526 0 01.2393 1.64013l42.95745 24.782 10.44141-6.01093 11.13117 14.57227-17.45034 12.43755a8 8 0 01-9.5982-.23384l-44.29652-34.94583a10.4971 10.4971 0 116.57573-12.24133z" fill="#ffb8b8"/>
  <path d="M247.56281 312.32022l-10.79389-21.80215a4.81689 4.81689 0 012.835-6.7204l23.07847-7.45966a13.37737 13.37737 0 0111.80032 24.01173l-19.8567 13.79048a4.81687 4.81687 0 01-7.06321-1.82z" fill="#b3b3b3"/>
  <path d="M307.04635 197.30383a4.0633 4.0633 0 004.31681-2.40945 5.85065 5.85065 0 00-.41558-5.13768 10.73569 10.73569 0 00-3.7759-3.70338 12.406 12.406 0 00-5.98158-2.05789 7.46123 7.46123 0 00-5.79386 2.19927 5.37676 5.37676 0 00-.97171 5.92757c.89811 1.73189 2.78252 2.70308 4.61861 3.36249a27.09446 27.09446 0 0011.37779 1.49441M314.89972 239.41942c-4.29282.20179-3.55357-8.90722-4.89707-12.98938s-3.19553-8.95129-7.42121-9.734c-3.463-.6414-6.59249 1.8908-9.609 3.70863-5.37643 3.24-12.33584 4.43518-17.9813 1.69061s-9.07856-10.078-6.33291-15.72294a12.87576 12.87576 0 018.049-6.34147 25.90621 25.90621 0 0110.46215-.50253 53.5269 53.5269 0 0121.88564 7.75738c4.58191 2.87355 8.94169 6.78638 10.30581 12.02s1.91985 19.46522-3.413 20.36624z" fill="#2f2e41"/>
  <path d="M303.66844 184.63478c-3.24269-4.11085-2.02127-10.58761 1.75819-14.21113s9.39951-4.75287 14.615-4.292a29.6206 29.6206 0 0124.02455 17.27486c3.29591 7.53929 3.2687 16.16291 6.24936 23.83231a32.13672 32.13672 0 0043.41 17.54257c5.18809-2.39208 10.1283-7.07633 9.83209-12.78163 3.28018 12.64628-2.62756 27.11236-13.82269 33.84715-6.55732 3.94476-14.32314 5.28395-21.91987 6.20555-4.95074.60059-10.0389 1.04741-14.87-.18987-6.75916-1.731-12.41819-6.71982-15.84494-12.79766s-4.77478-13.16057-4.827-20.13767c-.04071-5.43531.67085-10.87348.29483-16.29592s-2.00606-11.03112-5.93667-14.78538-10.5637-4.98991-14.87753-1.6831c-1.73367 1.329-3.00429 3.26972-4.95633 4.25017s-5.036.21793-5.16665-1.96259z" fill="#2f2e41"/>
  <path d="M209.56261 268.06604H6.98542A6.99354 6.99354 0 010 261.08062v-114.0952A6.99355 6.99355 0 016.98542 140h202.57719a6.99331 6.99331 0 016.9854 6.98542v114.0952a6.9933 6.9933 0 01-6.9854 6.98542zM6.98542 141.55232a5.43921 5.43921 0 00-5.43311 5.4331v114.0952a5.43922 5.43922 0 005.43311 5.43311h202.57719a5.43946 5.43946 0 005.4331-5.43311v-114.0952a5.43945 5.43945 0 00-5.4331-5.4331z" fill="#3f3d56"/>
  <circle cx="73.76763" cy="191.12496" r="28.96719" fill="#e6e6e6"/>
  <path d="M185.39039 242.27604l-34.00309-58.8951a2.42147 2.42147 0 00-4.19412 0l-20.751 35.94183-30.9356-53.58213a3.10467 3.10467 0 00-5.37739 0l-43.59618 75.51067a3.10463 3.10463 0 002.68869 4.65695h134.0716a2.42149 2.42149 0 002.09709-3.63222z" fill="#504de2"/>
  <path fill="#3f3d56" d="M14.747 153.97084h12.41853v12.41853H14.747z"/>
  <path d="M288.41715 100.06604H130.13087a5.46449 5.46449 0 01-5.45814-5.45815V5.45815A5.4645 5.4645 0 01130.13087 0h158.28628a5.46431 5.46431 0 015.45815 5.45815v89.14974a5.4643 5.4643 0 01-5.45815 5.45815zM130.13087 1.21292a4.25 4.25 0 00-4.24522 4.24523v89.14974a4.25 4.25 0 004.24522 4.24523h158.28628a4.25019 4.25019 0 004.24523-4.24523V5.45815a4.25019 4.25019 0 00-4.24523-4.24523z" fill="#ccc"/>
  <circle cx="182.31201" cy="39.94715" r="22.63388" fill="#f2f2f2"/>
  <path d="M269.52988 79.91469l-26.56875-46.01847a1.892 1.892 0 00-3.27713 0l-16.21409 28.0836-24.1719-41.86704a2.42587 2.42587 0 00-4.20169 0l-34.06441 59.00123a2.42585 2.42585 0 002.10085 3.63877h104.75856a1.89207 1.89207 0 001.63856-2.83809z" fill="#e6e6e6"/>
  <path fill="#ccc" d="M136.19548 10.9163h9.70337v9.70337h-9.70337z"/>
</svg>
