<svg viewBox="0 0 777.00073 407.99846" xmlns="http://www.w3.org/2000/svg">
  <path d="M775.3501 297.39848c-4.06982 25.87-16.68017 50.98-37.49023 66.87-20.48 15.65-46.71973 21.21-72.04981 25.99q-45.56982 8.61-91.39013 15.74-6.49512 1.035-13 2H383.5c-.18017-.24-.37011-.49-.5498-.74-.29-.42-.58008-.84-.86035-1.26-.15967-.24-.31983-.49-.48-.74h111.60011a11.96072 11.96072 0 0011.9502-11.94v-148.96c.71973-2.26 1.38965-4.53 2-6.82995a180.05237 180.05237 0 005.52979-32.71c.60009-7.7.78027-15.4.6499-23.11-.36963-21.19-3.13965-42.38-6.1499-63.42-.21973-1.55-.44971-3.11-.66993-4.66-2.12011-14.62-4.0498-30.53 3.31983-43.34 8.43017-14.66 27.14013-20.77 43.99023-19.27 30.31006 2.71 55.83985 25.92 69.10987 53.31 13.26025 27.38 16.23 58.52 17.43994 88.92.64013 16.12.57031 32.96-1.67969 49.13q11.39941-26.07 22.81982-52.14c4.06006-9.27 8.33008-18.84 15.8501-25.62 15.71973-14.19 41.71973-11.33 58.50977 1.59 16.78027 12.93 25.98 33.36 32.10009 53.63 7.58008 25.0699 11.4502 51.68996 7.37012 77.55995z" fill="#f2f2f2"/>
  <path d="M708.29819 156.88608c10.9923 19.4683 16.03538 41.79209 15.91469 64.06956a155.08734 155.08734 0 01-14.33137 63.92959 160.6074 160.6074 0 01-34.46657 48.29863 146.33182 146.33182 0 01-49.53157 31.64037 129.43749 129.43749 0 01-67.21077 6.38653q-4.70407-.80839-9.33861-1.95981c-1.87441-.462-2.6741 2.43033-.79752 2.89284a132.77706 132.77706 0 0071.2419-2.04896 146.7727 146.7727 0 0052.18265-29.68634 162.9081 162.9081 0 0037.4259-47.71227 159.49477 159.49477 0 0017.57522-63.86338c1.3102-22.61163-2.48049-45.62617-12.25915-66.13774q-1.77741-3.72827-3.81437-7.32317a1.50113 1.50113 0 00-2.59042 1.51415z" fill="#fff"/>
  <path d="M549.08857 50.62177a325.34391 325.34391 0 0128.29774 70.98262 342.83439 342.83439 0 015.83225 151.56009 324.11436 324.11436 0 01-22.78862 72.9844c-10.41915 23.14713-25.4196 47.536-51.04216 55.64059a53.43305 53.43305 0 01-8.85978 1.98052c-1.90417.26134-1.09355 3.15238.79752 2.89284 26.50486-3.63773 44.92183-25.65744 56.47214-48.10346 11.95115-23.225 20.461-48.4457 26.12039-73.909a345.52584 345.52584 0 00-1.1801-154.12143 330.4157 330.4157 0 00-26.52943-72.79677q-2.19828-4.347-4.52954-8.62454c-.92274-1.69656-3.514-.184-2.59041 1.51416z" fill="#fff"/>
  <path d="M423.64014 46.25847h-179.6001a13.76779 13.76779 0 00-13.75 13.75v89.99h27.64014a11.87878 11.87878 0 0110.10986 5.59l9.58008 15.25 9.16016 14.56994 1.71972 2.74 10.48 16.67.12012.19h138.29v-145a13.76779 13.76779 0 00-13.74998-13.74994z" fill="#ccc"/>
  <path d="M352.4502 73.76848h-88.99024a8.895 8.895 0 100 17.79h88.99024a8.895 8.895 0 100-17.79zM401.79981 117.44847H264.27002a9.71 9.71 0 000 19.42h137.52979a9.71 9.71 0 000-19.42zM410.58008 157.01848a9.70445 9.70445 0 00-8.78027-5.59H264.27002c-.21 0-.41015.01-.62011.02a11.91385 11.91385 0 014.39013 4.14l9.58008 15.25h124.17969a9.69745 9.69745 0 008.78027-13.82zM411.41016 193.80846a9.7092 9.7092 0 00-9.61035-8.4H286.78028l1.71972 2.74 10.48 16.67h102.81981a9.59905 9.59905 0 005.63037-1.81 9.69664 9.69664 0 004.06982-7.9 9.24451 9.24451 0 00-.08984-1.3z" fill="#fff"/>
  <path d="M521.18995 123.75847l-14-5.47-69.79981-27.24-83.51025-32.59a13.77453 13.77453 0 00-17.81006 7.82l-2.91992 7.49-6.94971 17.79-10.1001 25.89-7.58008 19.42-5.68017 14.56-7.58008 19.41-5.68994 14.56994-.15967.42005-.91016 2.32 10.48 16.67.12012.19h194.10984a11.91612 11.91612 0 019.29 4.44l.81983-2.08 10.02-25.66 15.66015-40.13a13.77715 13.77715 0 00-7.80999-17.81999z" fill="#504de2"/>
  <path d="M444.87012 123.49846l-7.48-2.92-75.41992-29.43a8.93074 8.93074 0 00-11.53027 5.05 8.924 8.924 0 005.06005 11.53l24.91016 9.72 30.81006 12.02 26.16992 10.22 1.00977.39a8.89889 8.89889 0 006.47021-16.58zM474.9502 182.13847l-37.56006-14.66-26.81006-10.46-14.32031-5.59-37.29981-14.56-12.12011-4.73a9.70982 9.70982 0 00-12.23 4.73c-.11963.25-.23975.51-.33985.78a9.70379 9.70379 0 005.51026 12.57l3.09961 1.21 49.72021 19.41 44.79 17.48 30.5 11.91a9.62861 9.62861 0 003.52.66 9.70595 9.70595 0 003.54-18.75zM437.39014 203.94847l-2.41016-.94-23.56982-9.2-21.53027-8.4-37.33985-14.56994-18.06006-7.05a9.70758 9.70758 0 10-7.0498 18.09l9.04 3.53 45.09961 17.6 4.64013 1.81.48.19h53.41015zM346.16016 204.81847l-4.64014-1.81-19.39013-7.57a9.69455 9.69455 0 00-13.12012 7.57 9.2009 9.2009 0 00-.10986 1.81 1.12063 1.12063 0 00.01025.19h37.73975z" fill="#fff"/>
  <path d="M386.20996 204.81847l-4.64013-1.81h-72.56006a9.2009 9.2009 0 00-.10986 1.81h-9.91993l.12012.19h87.58985zm0 0h-87.23l.12012.19h87.58985zm0 0h-87.23l.12012.19h87.58985zm.48.19l-.48-.19h-87.23l.12012.19zm-175.00977 200.25a11.95822 11.95822 0 01-11.93994-11.94v-231.37a11.96034 11.96034 0 0111.93994-11.95h18.60986v-2h-18.60987a13.96617 13.96617 0 00-13.93994 13.95v231.37a13.95043 13.95043 0 008.16992 12.68h176.17969c-.15967-.24-.31983-.49-.48-.74zm291.63965-197.89a13.87759 13.87759 0 00-10.10987-4.36h-193l-10.7998-17.18-.26025-.42005-9.15967-14.56994-10.26026-16.32a13.97619 13.97619 0 00-11.7998-6.52h-46.25a13.96617 13.96617 0 00-13.93994 13.95v231.37a13.95043 13.95043 0 008.16992 12.68 13.74939 13.74939 0 005.77 1.26h281.52979a13.79793 13.79793 0 005.78028-1.26 13.95124 13.95124 0 008.16992-12.68v-176.36a13.87 13.87 0 00-3.84033-9.59003zm1.84033 185.95a11.96072 11.96072 0 01-11.9502 11.94H211.68018a11.95822 11.95822 0 01-11.93994-11.94v-231.37a11.96034 11.96034 0 0111.93994-11.95h46.25a11.87878 11.87878 0 0110.10986 5.59l9.58008 15.25 9.16016 14.56994 1.71972 2.74 10.48 16.67.12012.19h194.10984a11.96045 11.96045 0 0111.9502 11.95zm-118.9502-188.5h-87.23l.12012.19h87.58985zm0 0h-87.23l.12012.19h87.58985zm0 0h-87.23l.12012.19h87.58985zm0 0l-4.64013-1.81h-81.35988l-10.7998-17.18-.91016 2.32 10.48 16.67.12012.19h87.58985z" fill="#3f3d56"/>
  <path d="M156.928 287.77l-5.728 11.976-48.917-16.394 8.453-17.675z" fill="#ffb8b8"/>
  <path d="M143.15518323 307.77537348l11.57844957-24.20771073 14.54175413 6.95526185-18.00182881 37.6374282-1.11199155-.53186103a14.88686 14.88686 0 01-7.00638334-19.85311829z" fill="#2f2e41"/>
  <path d="M168.459 394.715l-13.267-.448-.559-51.644 15.553.918z" fill="#ffb8b8"/>
  <path d="M144.61101026 390.115079l26.81891866.9051811-.5437491 16.11032639-41.69725658-1.40734863.04157989-1.2319385a14.88685998 14.88685998 0 0115.38050713-14.37622036zM189.82445 178.57873s-40.605-10.28659-59.01257 4.8726l-10.28659 29.777-41.14638 58.47117 59.554 35.73238 10.828-27.07-25.98718-12.9936 31.40118-27.07-5.414 142.92952 20.57319 3.2484s45.47754-176.49629 19.49035-207.89747z" fill="#2f2e41"/>
  <path d="M128.22094 187.85549l.49487-.87978c5.217-9.27464 4.37164-24.37779 2.744-35.41409-1.36328-9.244-1.32231-25.53461-1.04791-37.57336a17.89121 17.89121 0 0114.26147-17.22116c12.35254-2.57059 27.51728-3.11516 35.45746-3.21139l.00661.5414-.00661-.5414a8.24494 8.24494 0 018.27538 8.04275c.24162 12.964.16654 36.60475-3.05066 49.28852-4.77479 18.82527 2.69166 31.618 2.7678 31.74485l.45046.75288z" fill="#504de2"/>
  <path d="M107.33397 239.77323a10.02479 10.02479 0 003.81053-14.892l22.91578-98.81821h-17.32479l-20.22438 96.87052a10.07912 10.07912 0 0010.82286 16.83969zM246.67142 142.50182l-38.2425-36.17534-10.33582 14.47013 25.83953 22.73879-33.88713 26.91034c-.24477-.01653-.48853-.03722-.73784-.03722a10.85261 10.85261 0 1010.74561 12.296l.107.107z" fill="#ffb8b8"/>
  <path d="M142.24083 98.03731s-23.88114-3.91694-26.04674 14.49065-3.2484 18.40759-3.2484 18.40759 17.32479-3.24839 21.656 1.0828 7.63914-33.98104 7.63914-33.98104zM177.91366 95.20317s19.49039-3.24839 28.15278 5.414 12.9936 10.828 12.9936 10.828-19.49039 10.828-11.9108 20.57319c0 0-20.57319-9.74519-23.82158-6.49679s-5.414-30.3184-5.414-30.3184z" fill="#504de2"/>
  <path d="M160.81876 32.33834c-6.148-4.91-7.76342-14.38628-4.19638-21.39926S168.25409-.29901 176.11578.01652 191.38544 4.8456 195.94 11.26134c6.39793 9.01238 7.74052 21.53835 16.24786 28.594 7.68395 6.37273 18.69155 6.19022 28.66139 5.68324 3.36071-.1709 6.83013-.369 9.84577-1.86219s5.47946-4.64237 5.09075-7.98489c2.50462 3.96489 1.05154 9.524-2.30876 12.79543s-8.145 4.642-12.80289 5.18773a47.56885 47.56885 0 01-43.1514-18.93293c-3.46887-4.78542-6.146-10.3579-10.906-13.86156s-12.69667-3.74754-15.61885 1.39c-1.44527 2.541-1.30342 5.72826-2.63248 8.3319s-5.645 4.00754-6.92478 1.37932" fill="#2f2e41"/>
  <circle cx="159.87891" cy="54.55562" fill="#2f2e41" r="30"/>
  <circle cx="159.6978" cy="62.34302" fill="#ffb8b8" r="24.56103"/>
  <path d="M137.30279 44.3044c3.338.73012 2.24571 6.32966 4.88341 8.50165 2.37937 1.95927 5.8059-.05564 8.80058-.78507 3.78081-.92091 7.73806.42815 11.22871 2.148s6.8565 3.85421 10.66447 4.65545 8.32247-.10183 10.45715-3.3554c2.04109-3.11093 1.28973-7.30611-.30712-10.66677a24.76974 24.76974 0 00-44.442-.61588" fill="#2f2e41"/>
  <path d="M716 406.99846a1.00307 1.00307 0 01-1 1H1a1 1 0 010-2h714a1.00307 1.00307 0 011 1z" fill="#3f3d56"/>
</svg>
