<svg xmlns="http://www.w3.org/2000/svg" viewBox="0 0 64 64">
  <path d="M19.1 14.1c-1.1-1.1-2.7-1.1-3.7 0L1.2 28.8c-1.6 1.9-1.6 4.5 0 6.1l14.1 14.7c.5.5 1.3.8 1.9.8s1.3-.3 1.9-.8c1.1-1.1 1.1-2.7 0-3.7L5.5 32l13.6-14.1c1.1-1.1 1.1-2.7 0-3.8zM62.6 28.8L48.4 14.1c-1.1-1.1-2.7-1.1-3.7 0s-1.1 2.7 0 3.7L58.3 32 44.7 46.1c-1.1 1.1-1.1 2.7 0 3.7.5.5 1.1.8 1.9.8.8 0 1.3-.3 1.9-.8l14.1-14.7c1.8-1.8 1.8-4.4 0-6.3zM38.3 14.4c-1.3-.5-2.9.3-3.5 1.6L23.9 46.4c-.5 1.3.3 2.9 1.6 3.5.3 0 .5.3.8.3 1.1 0 2.1-.8 2.4-1.9l11.2-30.7c.5-1.3-.3-2.9-1.6-3.2z"/>
</svg>
