<svg viewBox="0 0 24 6" fill="#E2E2E2" xmlns="http://www.w3.org/2000/svg">
  <path d="M24 3.59V2.41C24 1.07899 22.921-5e-8 21.59-1e-7l-1.18-6e-8C19.079-2.2e-7 18 1.07899 18 2.41v1.18C18 4.92101 19.079 6 20.41 6h1.18C22.921 6 24 4.92101 24 3.59zM15 3.59V2.41C15 1.07899 13.921-5e-8 12.59-1e-7l-1.18-6e-8C10.079-2.2e-7 9 1.07899 9 2.41v1.18C9 4.92101 10.079 6 11.41 6h1.18C13.921 6 15 4.92101 15 3.59zM6 3.59V2.41C6 1.07899 4.92101-5e-8 3.59-1e-7l-1.18-6e-8C1.07899-2.2e-7-5e-8 1.07899-1e-7 2.41l-6e-8 1.18C-2.2e-7 4.92101 1.07899 6 2.41 6h1.18C4.92101 6 6 4.92101 6 3.59z" />
</svg>
