<svg xmlns="http://www.w3.org/2000/svg" data-name="Layer 1" viewBox="0 0 512 512">
  <path d="M438 83.31L366.12 16.7A32.57 32.57 0 00343.93 8H115.51a52.12 52.12 0 00-52 52.12v391.76a52.12 52.12 0 0052 52.12h281a52.12 52.12 0 0052-52.12V107.35A32.87 32.87 0 00438 83.31zm-82.76-54.87L427.13 95a16.66 16.66 0 013.44 4.54h-70.15A10.87 10.87 0 01349.63 89l-1.25-64.34a16.62 16.62 0 016.86 3.78zm77.26 423.44a36.1 36.1 0 01-36 36.12h-281a36.1 36.1 0 01-36-36.12V60.12a36.1 36.1 0 0136-36.12h216.87l1.26 65.26a27 27 0 0026.79 26.32h72.08z"/>
  <path d="M288.84 244.27l-23.62-21a15.17 15.17 0 00-9.84-4.22 7.56 7.56 0 00-.83 0 7.34 7.34 0 00-1 .06 15.14 15.14 0 00-9.73 4.39l-23.16 23.07A8 8 0 00232 257.88l14.55-14.49v65.29a8 8 0 0016 0V242.3l15.66 13.93a8 8 0 0010.63-12z"/>
</svg>
