<svg viewBox="0 0 130 131" fill="none" xmlns="http://www.w3.org/2000/svg">
  <path d="M129 130.001H74.2803c-.5523 0-1-.447-1-1V54.5012c0-.5527.4477-1 1-1H117.45c.552 0 1 .4473 1 1 0 .5528-.448 1-1 1H75.2803v72.4998H128V66.0618c0-.5528.448-1 1-1 .553 0 1 .4472 1 1v62.9392c0 .553-.447 1-1 1z" fill="#000"/>
  <path d="M129 67.0618h-11.55c-.552 0-1-.4472-1-1V54.5013c0-.4043.244-.7696.618-.9239.371-.1582.803-.0693 1.09.2168l11.55 11.5606c.286.2861.371.7168.216 1.0898-.154.3741-.519.6172-.924.6172zm-10.55-2h8.138l-8.138-8.1445v8.1445zM110.947 69.4182H81.2803c-.5523 0-1-.4473-1-1s.4477-1 1-1h29.6667c.552 0 1 .4473 1 1s-.448 1-1 1zM122.614 81.1155H81.2803c-.5523 0-1-.4473-1-1 0-.5528.4477-1 1-1h41.3337c.552 0 1 .4472 1 1 0 .5527-.448 1-1 1zM122.614 92.8137H81.2803c-.5523 0-1-.4472-1-1 0-.5527.4477-1 1-1h41.3337c.552 0 1 .4473 1 1 0 .5528-.448 1-1 1zM122.614 104.512H81.2803c-.5523 0-1-.447-1-1 0-.553.4477-1 1-1h41.3337c.552 0 1 .447 1 1 0 .553-.448 1-1 1zM122.614 116.209H81.2803c-.5523 0-1-.447-1-1 0-.553.4477-1 1-1h41.3337c.552 0 1 .447 1 1 0 .553-.448 1-1 1zM55.7202 76.5012H1c-.552246 0-1-.4472-1-1V1.00122C0 .448486.447754.0012207 1 .0012207h43.1704c.5523 0 1 .4472653 1 .9999993 0 .55274-.4477 1-1 1H2V74.5012h52.7202V12.5618c0-.5528.4478-1 1-1 .5523 0 1 .4472 1 1v62.9394c0 .5528-.4477 1-1 1z" fill="#000"/>
  <path d="M55.7202 13.5618H44.1704c-.5522 0-1-.4472-1-1V1.0013c0-.404293.2437-.769528.6177-.9238246.373-.1572266.8037-.07031253 1.0898.2167966L56.4277 11.8548c.2857.2862.3711.7168.2163 1.0899-.1547.374-.5195.6171-.9238.6171zm-10.5498-2h8.1372l-8.1372-8.14448v8.14448zM37.667 15.9182H8c-.55225 0-1-.4473-1-1s.44775-1 1-1h29.667c.5522 0 1 .4473 1 1s-.4478 1-1 1zM49.3335 27.6155H8c-.55225 0-1-.4473-1-1 0-.5528.44775-1 1-1h41.3335c.5522 0 1 .4472 1 1 0 .5527-.4478 1-1 1zM49.3335 39.3137H8c-.55225 0-1-.4472-1-1 0-.5527.44775-1 1-1h41.3335c.5522 0 1 .4473 1 1 0 .5528-.4478 1-1 1zM49.3335 51.012H8c-.55225 0-1-.4473-1-1 0-.5528.44775-1 1-1h41.3335c.5522 0 1 .4472 1 1 0 .5527-.4478 1-1 1zM49.3335 62.7092H8c-.55225 0-1-.4472-1-1 0-.5527.44775-1 1-1h41.3335c.5522 0 1 .4473 1 1 0 .5528-.4478 1-1 1zM110.604 42.9607c-.552 0-1-.4473-1-1v-25.75H88.3125c-.5522 0-1-.4473-1-1s.4478-1 1-1h22.2915c.553 0 1 .4473 1 1v26.75c0 .5527-.447 1-1 1z" fill="#000"/>
  <path d="M110.604 42.9607c-.255 0-.511-.0977-.707-.293l-5.417-5.416c-.39-.3906-.39-1.0234 0-1.4141.391-.3906 1.024-.3906 1.415 0l4.709 4.709 4.71-4.709c.391-.3906 1.023-.3906 1.414 0 .391.3907.391 1.0235 0 1.4141l-5.416 5.416c-.196.1953-.452.293-.708.293zM41.688 115.791H19.396c-.5522 0-1-.447-1-1V88.0408c0-.5528.4478-1 1-1s1 .4472 1 1v25.7502h21.292c.5522 0 1 .447 1 1 0 .553-.4478 1-1 1z" fill="#000"/>
  <path d="M24.813 94.4578c-.2559 0-.5117-.0977-.707-.293l-4.71-4.71-4.7095 4.71c-.3906.3906-1.0234.3906-1.414 0-.3907-.3906-.3907-1.0234 0-1.4141l5.4165-5.417c.375-.375 1.039-.375 1.414 0l5.417 5.417c.3906.3907.3906 1.0235 0 1.4141-.1953.1953-.4512.293-.707.293z" fill="#000"/>
</svg>
